# 3ds Max Wavefront OBJ Exporter v0.99 - (c)2007 guruware
# File Created: 05.06.2025 11:20:28

mtllib traffic_cone.mtl

#
# object traffic_cone
#

v  25.0000 2.2300 -20.0000
v  24.6194 2.2300 -21.9134
v  24.3123 3.4816 -20.8321
v  20.0000 2.2300 -25.0000
v  20.8321 3.4816 -24.3123
v  21.9134 2.2300 -24.6194
v  -25.0000 2.2300 -20.0000
v  -24.3123 3.4816 -20.8321
v  -24.6194 2.2300 -21.9134
v  -20.0000 2.2300 -25.0000
v  -21.9134 2.2300 -24.6194
v  -20.8321 3.4816 -24.3123
v  25.0000 2.2300 20.0000
v  24.3123 3.4816 20.8321
v  24.6194 2.2300 21.9134
v  20.0000 2.2300 25.0000
v  21.9134 2.2300 24.6194
v  20.8321 3.4816 24.3123
v  -25.0000 2.2300 20.0000
v  -24.6194 2.2300 21.9134
v  -24.3123 3.4816 20.8321
v  -20.0000 2.2300 25.0000
v  -20.8321 3.4816 24.3123
v  -21.9134 2.2300 24.6194
v  -18.0000 0.0000 25.0000
v  -18.0000 1.0000 25.0000
v  -20.0000 0.0000 25.0000
v  18.0000 0.0000 -25.0000
v  18.0000 1.0000 -25.0000
v  20.0000 0.0000 -25.0000
v  25.0000 0.0000 -18.0000
v  25.0000 0.0000 -20.0000
v  25.0000 1.0000 -18.0000
v  -18.0000 0.0000 -25.0000
v  -20.0000 0.0000 -25.0000
v  -18.0000 1.0000 -25.0000
v  -25.0000 0.0000 -18.0000
v  -25.0000 1.0000 -18.0000
v  -25.0000 0.0000 -20.0000
v  18.0000 0.0000 25.0000
v  20.0000 0.0000 25.0000
v  18.0000 1.0000 25.0000
v  25.0000 0.0000 18.0000
v  25.0000 1.0000 18.0000
v  25.0000 0.0000 20.0000
v  -25.0000 0.0000 18.0000
v  -25.0000 0.0000 20.0000
v  -25.0000 1.0000 18.0000
v  -18.0000 4.0000 22.2840
v  -22.2840 4.0000 22.2840
v  -20.5313 4.0000 23.1113
v  -18.0000 4.0000 23.2300
v  20.5313 4.0000 23.1113
v  18.0000 4.0000 23.2300
v  18.0000 3.4816 24.4816
v  25.0000 2.2300 18.0000
v  25.0000 2.2300 -18.0000
v  -21.9134 0.0000 24.6194
v  -18.0000 2.2300 25.0000
v  24.6194 0.0000 -21.9134
v  23.1113 4.0000 -20.5313
v  23.2300 4.0000 -18.0000
v  24.4816 3.4816 -18.0000
v  -18.0000 3.4816 24.4816
v  18.0000 2.2300 25.0000
v  24.4816 3.4816 18.0000
v  23.2300 4.0000 18.0000
v  23.1113 4.0000 20.5313
v  18.0000 2.2300 -25.0000
v  -25.0000 2.2300 -18.0000
v  -23.1113 4.0000 20.5313
v  -23.2300 4.0000 18.0000
v  -24.4816 3.4816 18.0000
v  21.9134 0.0000 -24.6194
v  24.6194 0.0000 21.9134
v  21.9134 0.0000 24.6194
v  -20.5313 4.0000 -23.1113
v  -18.0000 4.0000 -23.2300
v  -18.0000 3.4816 -24.4816
v  -0.0000 0.0000 3.0000
v  -3.0000 0.0000 -0.0000
v  0.0000 0.0000 -3.0000
v  3.0000 0.0000 -0.0000
v  -18.0000 2.2300 -25.0000
v  -24.6194 0.0000 21.9134
v  -24.6194 0.0000 -21.9134
v  18.0000 3.4816 -24.4816
v  18.0000 4.0000 -23.2300
v  20.5313 4.0000 -23.1113
v  -21.9134 0.0000 -24.6194
v  -25.0000 2.2300 18.0000
v  -24.4816 3.4816 -18.0000
v  -23.2300 4.0000 -18.0000
v  -23.1113 4.0000 -20.5313
v  18.0000 1.0000 -21.0000
v  -18.0000 1.0000 -21.0000
v  0.0000 1.0000 -3.0000
v  21.0000 1.0000 18.0000
v  21.0000 1.0000 -18.0000
v  3.0000 1.0000 0.0000
v  -3.0000 1.0000 -0.0000
v  -21.0000 1.0000 -18.0000
v  -21.0000 0.0000 -18.0000
v  21.0000 0.0000 18.0000
v  -0.0000 1.0000 3.0000
v  -18.0000 1.0000 21.0000
v  -18.0000 0.0000 21.0000
v  18.0000 0.0000 -21.0000
v  18.0000 1.0000 21.0000
v  -21.0000 1.0000 18.0000
v  21.0000 0.0000 -18.0000
v  18.0000 0.0000 21.0000
v  -18.0000 0.0000 -21.0000
v  -21.0000 0.0000 18.0000
v  23.5355 2.2300 -23.5355
v  23.5355 0.0000 -23.5355
v  23.1690 3.4816 -23.1690
v  22.2840 4.0000 22.2840
v  23.1690 3.4816 23.1690
v  -23.1690 3.4816 23.1690
v  23.5355 2.2300 23.5355
v  22.2840 4.0000 -22.2840
v  -23.1690 3.4816 -23.1690
v  -22.2840 4.0000 -22.2840
v  -23.5355 2.2300 23.5355
v  23.5355 0.0000 23.5355
v  -23.5355 2.2300 -23.5355
v  -23.5355 0.0000 23.5355
v  -23.5355 0.0000 -23.5355
v  -18.0000 4.0000 -18.0000
v  -18.0000 4.0000 -20.5313
v  -18.0000 4.0000 -22.2840
v  -18.0000 4.0000 18.0000
v  -18.0000 4.0000 20.5313
v  18.0000 4.0000 22.2840
v  18.0000 4.0000 20.5313
v  18.0000 4.0000 18.0000
v  18.0000 4.0000 -18.0000
v  18.0000 4.0000 -20.5313
v  18.0000 4.0000 -22.2840
v  12.7271 3.7014 -9.7658
v  9.6442 3.8156 -12.5686
v  8.9896 4.8947 -11.7155
v  11.7225 4.8947 -8.9950
v  6.1391 3.7014 -14.8210
v  5.6545 4.8947 -13.6512
v  5.0771 13.6592 -12.2572
v  8.0717 13.6592 -10.5192
v  10.5255 13.6592 -8.0765
v  -9.7658 3.7014 -12.7271
v  -12.5686 3.8156 -9.6442
v  -11.7155 4.8947 -8.9896
v  -8.9950 4.8947 -11.7225
v  -14.8210 3.7014 -6.1391
v  -13.6512 4.8947 -5.6545
v  -12.2572 13.6592 -5.0771
v  -10.5192 13.6592 -8.0717
v  -8.0765 13.6592 -10.5255
v  -2.0939 3.7014 -15.9049
v  -6.0626 3.8156 -14.6364
v  -5.6511 4.8947 -13.6430
v  -1.9286 4.8947 -14.6495
v  -5.0741 13.6592 -12.2499
v  -1.7317 13.6592 -13.1536
v  -5.4847 38.3951 -7.1477
v  -3.4457 38.3951 -8.3187
v  -2.9072 62.9558 -3.7888
v  -1.8265 62.9558 -4.4095
v  -0.6233 62.9558 -4.7348
v  -1.1760 38.3951 -8.9324
v  -7.1434 38.3951 -5.4814
v  -8.3237 38.3951 -3.4478
v  -4.4122 62.9558 -1.8276
v  -3.7865 62.9558 -2.9055
v  -15.7068 3.8156 -2.0678
v  -14.6407 4.8947 -1.9275
v  -15.9049 3.7014 2.0939
v  -14.6495 4.8947 1.9286
v  -13.1536 13.6592 1.7317
v  -13.1457 13.6592 -1.7307
v  -8.9271 38.3951 -1.1753
v  -8.9324 38.3951 1.1760
v  -4.7348 62.9558 0.6233
v  -4.7320 62.9558 -0.6230
v  -14.6364 3.8156 6.0626
v  -13.6430 4.8947 5.6511
v  -12.7271 3.7014 9.7658
v  -11.7225 4.8947 8.9950
v  -10.5255 13.6592 8.0765
v  -12.2499 13.6592 5.0741
v  -8.3187 38.3951 3.4457
v  -4.4095 62.9558 1.8265
v  -7.1477 38.3951 5.4847
v  -3.7888 62.9558 2.9072
v  -9.6442 3.8156 12.5686
v  -8.9896 4.8947 11.7155
v  -6.1391 3.7014 14.8210
v  -5.6545 4.8947 13.6512
v  -5.0771 13.6592 12.2572
v  -8.0717 13.6592 10.5192
v  -5.4814 38.3951 7.1434
v  -2.9055 62.9558 3.7865
v  -3.4478 38.3951 8.3237
v  -1.8276 62.9558 4.4122
v  -2.0678 3.8156 15.7068
v  -1.9275 4.8947 14.6407
v  2.0939 3.7014 15.9049
v  1.9286 4.8947 14.6495
v  1.7317 13.6592 13.1536
v  -1.7307 13.6592 13.1457
v  -1.1753 38.3951 8.9271
v  1.1760 38.3951 8.9324
v  0.6233 62.9558 4.7348
v  -0.6230 62.9558 4.7320
v  6.0626 3.8156 14.6364
v  5.6511 4.8947 13.6430
v  9.7658 3.7014 12.7271
v  8.9950 4.8947 11.7225
v  8.0765 13.6592 10.5255
v  5.0741 13.6592 12.2499
v  3.4457 38.3951 8.3187
v  5.4847 38.3951 7.1477
v  2.9072 62.9558 3.7888
v  1.8265 62.9558 4.4095
v  12.5686 3.8156 9.6442
v  11.7155 4.8947 8.9896
v  14.8210 3.7014 6.1391
v  13.6512 4.8947 5.6545
v  12.2572 13.6592 5.0771
v  10.5192 13.6592 8.0717
v  7.1434 38.3951 5.4814
v  3.7865 62.9558 2.9055
v  8.3237 38.3951 3.4478
v  4.4122 62.9559 1.8276
v  15.7068 3.8156 2.0678
v  14.6407 4.8947 1.9275
v  15.9049 3.7014 -2.0939
v  14.6495 4.8947 -1.9286
v  13.1536 13.6592 -1.7317
v  13.1457 13.6592 1.7307
v  8.9271 38.3951 1.1753
v  8.9324 38.3951 -1.1760
v  4.7349 62.9559 -0.6234
v  4.7320 62.9559 0.6230
v  14.6364 3.8156 -6.0626
v  13.6430 4.8947 -5.6511
v  12.2499 13.6592 -5.0741
v  8.3187 38.3951 -3.4457
v  7.1477 38.3951 -5.4847
v  3.7888 62.9559 -2.9073
v  4.4095 62.9559 -1.8265
v  5.4814 38.3951 -7.1434
v  3.4478 38.3951 -8.3237
v  1.8276 62.9559 -4.4122
v  2.9055 62.9559 -3.7866
v  0.6230 62.9558 -4.7320
v  1.1753 38.3951 -8.9271
v  1.7307 13.6592 -13.1457
v  1.9275 4.8947 -14.6407
v  2.0678 3.8156 -15.7068
v  -0.4771 71.3121 -3.0272
v  -1.1656 71.3171 -2.8141
v  -1.0373 71.3236 -2.5043
v  0.0498 71.3171 -2.9741
v  -1.8031 71.3121 -2.4779
v  -2.1382 71.3171 -2.0678
v  -2.4012 71.3172 -1.4184
v  -0.8475 71.3236 -2.0460
v  0.6950 71.3172 -2.7009
v  -2.4978 71.3171 -0.6706
v  -0.5989 71.3236 -1.4458
v  -2.4270 71.3171 0.1221
v  -0.3102 71.3236 -0.7489
v  1.8025 71.3172 -1.6298
v  1.2920 71.3172 -2.2404
v  -2.1880 71.3171 0.9063
v  0.0000 71.3236 -0.0000
v  -1.8025 71.3171 1.6298
v  0.3102 71.3236 0.7489
v  2.4270 71.3172 -0.1221
v  2.1881 71.3172 -0.9063
v  -1.2920 71.3172 2.2404
v  0.5989 71.3236 1.4458
v  -0.6950 71.3172 2.7008
v  0.8475 71.3236 2.0460
v  2.4012 71.3172 1.4184
v  2.4978 71.3172 0.6706
v  -0.0498 71.3171 2.9741
v  1.0373 71.3236 2.5043
v  0.4771 71.3121 3.0272
v  1.1656 71.3171 2.8141
v  1.8031 71.3121 2.4779
v  2.1382 71.3171 2.0678
v  -1.2766 71.1943 -3.0820
v  -0.4357 71.1944 -3.3094
v  -2.0320 71.1944 -2.6482
v  -2.0013 71.2590 -2.6081
v  -1.2573 71.2589 -3.0353
v  -0.4291 71.2590 -3.2593
v  -2.6467 71.1945 -2.0308
v  -3.0841 71.1946 -1.2775
v  -3.0375 71.2594 -1.2582
v  -2.6067 71.2592 -2.0001
v  -3.3075 71.1945 -0.4355
v  -3.3094 71.1944 0.4357
v  -3.2594 71.2590 0.4291
v  -3.2575 71.2592 -0.4289
v  -3.0820 71.1944 1.2766
v  -2.6482 71.1945 2.0321
v  -2.6082 71.2591 2.0014
v  -3.0354 71.2590 1.2573
v  -2.0309 71.1946 2.6467
v  -1.2775 71.1946 3.0841
v  -1.2582 71.2594 3.0375
v  -2.0002 71.2593 2.6068
v  -0.4355 71.1945 3.3075
v  0.4357 71.1944 3.3094
v  0.4291 71.2590 3.2593
v  -0.4289 71.2592 3.2575
v  1.2766 71.1943 3.0820
v  2.0320 71.1944 2.6482
v  2.0013 71.2590 2.6081
v  1.2573 71.2589 3.0353
v  2.6467 71.1945 2.0308
v  3.0841 71.1946 1.2775
v  3.0376 71.2594 1.2582
v  2.6067 71.2592 2.0001
v  3.3077 71.1947 0.4355
v  3.3097 71.1947 -0.4357
v  3.2597 71.2595 -0.4292
v  3.2578 71.2595 0.4289
v  3.0823 71.1947 -1.2767
v  2.6484 71.1947 -2.0322
v  2.6084 71.2595 -2.0015
v  3.0358 71.2595 -1.2575
v  2.0310 71.1947 -2.6468
v  1.2775 71.1946 -3.0841
v  1.2582 71.2594 -3.0375
v  2.0003 71.2595 -2.6069
v  0.4355 71.1945 -3.3075
v  0.4289 71.2592 -3.2575
v  -1.2296 71.2977 -2.9686
v  -1.9572 71.2978 -2.5507
v  -0.4196 71.2978 -3.1876
v  -2.5493 71.2979 -1.9561
v  -2.9706 71.2980 -1.2304
v  0.4195 71.2979 -3.1858
v  1.2305 71.2980 -2.9706
v  -3.1858 71.2979 -0.4195
v  -3.1876 71.2978 0.4196
v  1.9562 71.2981 -2.5494
v  2.5509 71.2981 -1.9574
v  -2.9686 71.2978 1.2296
v  -2.5508 71.2978 1.9573
v  2.9688 71.2981 -1.2297
v  3.1879 71.2981 -0.4197
v  -1.9561 71.2980 2.5493
v  -1.2305 71.2980 2.9706
v  3.1860 71.2981 0.4194
v  2.9706 71.2980 1.2304
v  -0.4195 71.2979 3.1858
v  0.4196 71.2978 3.1876
v  1.2296 71.2977 2.9686
v  1.9572 71.2978 2.5507
v  2.5493 71.2979 1.9561
# 365 vertices

vn 0.9991 0.0397 -0.0160
vn 0.9155 0.1213 -0.3836
vn 0.6273 0.7668 -0.1362
vn 0.0160 0.0397 -0.9991
vn 0.1572 0.7496 -0.6430
vn 0.4118 0.2045 -0.8880
vn -0.9991 0.0397 -0.0160
vn -0.6273 0.7668 -0.1362
vn -0.9155 0.1213 -0.3836
vn -0.0160 0.0397 -0.9991
vn -0.4118 0.2045 -0.8880
vn -0.1572 0.7496 -0.6430
vn 0.9991 0.0397 0.0160
vn 0.6430 0.7496 0.1572
vn 0.8880 0.2045 0.4118
vn 0.0160 0.0397 0.9991
vn 0.4118 0.2045 0.8880
vn 0.1572 0.7496 0.6430
vn -0.9991 0.0397 0.0160
vn -0.8880 0.2045 0.4118
vn -0.6430 0.7496 0.1572
vn -0.0160 0.0397 0.9991
vn -0.1572 0.7496 0.6430
vn -0.4118 0.2045 0.8880
vn 0.0000 0.0000 1.0000
vn -0.0147 0.0000 0.9999
vn 0.0000 0.0000 -1.0000
vn 0.0147 0.0000 -0.9999
vn 1.0000 0.0000 -0.0000
vn 0.9999 0.0000 -0.0147
vn -0.0147 0.0000 -0.9999
vn -1.0000 0.0000 -0.0000
vn -0.9999 0.0000 -0.0147
vn 0.0147 0.0000 0.9999
vn 0.9999 0.0000 0.0147
vn -0.9999 0.0000 0.0147
vn 0.0000 1.0000 -0.0000
vn -0.0006 1.0000 0.0006
vn -0.0002 1.0000 0.0008
vn 0.0000 1.0000 0.0048
vn 0.0002 1.0000 0.0008
vn 0.0015 0.9239 0.3826
vn 0.9812 0.1930 -0.0000
vn -0.3826 0.0000 0.9239
vn 0.0000 0.1930 0.9812
vn 0.9239 0.0000 -0.3826
vn 0.0008 1.0000 -0.0002
vn 0.0048 1.0000 -0.0000
vn 0.3826 0.9239 -0.0015
vn -0.0015 0.9239 0.3826
vn 0.3826 0.9239 0.0015
vn 0.0008 1.0000 0.0002
vn 0.0000 0.1930 -0.9812
vn -0.9812 0.1930 -0.0000
vn -0.0008 1.0000 0.0002
vn -0.0048 1.0000 -0.0000
vn -0.3826 0.9239 0.0015
vn 0.3826 0.0000 -0.9239
vn 0.9239 0.0000 0.3826
vn 0.3826 0.0000 0.9239
vn -0.0002 1.0000 -0.0008
vn 0.0000 1.0000 -0.0048
vn -0.0015 0.9239 -0.3826
vn 0.0000 -1.0000 -0.0000
vn 0.0000 -1.0000 0.0000
vn -0.9239 0.0000 0.3826
vn -0.9239 0.0000 -0.3826
vn 0.0015 0.9239 -0.3826
vn 0.0002 1.0000 -0.0008
vn -0.3826 0.0000 -0.9239
vn -0.3826 0.9239 -0.0015
vn -0.0008 1.0000 -0.0002
vn -0.7071 0.0000 0.7071
vn 0.7071 0.0000 -0.7071
vn 0.7071 0.0000 0.7071
vn -0.7071 0.0000 -0.7071
vn 0.6825 0.1293 -0.7193
vn 0.4438 0.7092 -0.5478
vn 0.0006 1.0000 0.0006
vn 0.5331 0.6569 0.5331
vn -0.5331 0.6569 0.5331
vn 0.6978 0.1613 0.6978
vn 0.0006 1.0000 -0.0006
vn -0.4438 0.7092 -0.5478
vn -0.0006 1.0000 -0.0006
vn -0.6978 0.1613 0.6978
vn -0.6825 0.1293 -0.7193
vn -0.0036 0.3826 -0.9239
vn 0.0036 0.3826 -0.9239
vn -0.9239 0.3826 -0.0036
vn -0.9239 0.3826 0.0036
vn -0.0036 0.3826 0.9239
vn 0.0036 0.3826 0.9239
vn 0.9239 0.3826 -0.0036
vn 0.9239 0.3826 0.0036
vn 0.5440 0.7278 -0.4175
vn 0.4312 0.7059 -0.5620
vn 0.5973 0.1936 -0.7783
vn 0.7781 0.1949 -0.5971
vn 0.2624 0.7278 -0.6336
vn 0.3754 0.1949 -0.9062
vn 0.3771 0.1698 -0.9105
vn 0.6000 0.1696 -0.7818
vn 0.7818 0.1698 -0.6000
vn -0.4175 0.7278 -0.5440
vn -0.5620 0.7059 -0.4312
vn -0.7783 0.1936 -0.5973
vn -0.5971 0.1949 -0.7781
vn -0.6336 0.7278 -0.2624
vn -0.9062 0.1949 -0.3754
vn -0.9105 0.1698 -0.3771
vn -0.7818 0.1696 -0.6000
vn -0.6000 0.1698 -0.7818
vn -0.0895 0.7278 -0.6799
vn -0.2711 0.7059 -0.6544
vn -0.3755 0.1936 -0.9064
vn -0.1280 0.1949 -0.9724
vn -0.3771 0.1696 -0.9105
vn -0.1286 0.1698 -0.9771
vn -0.5999 0.1698 -0.7818
vn -0.3771 0.1698 -0.9105
vn -0.5998 0.1709 -0.7817
vn -0.3771 0.1709 -0.9103
vn -0.1286 0.1709 -0.9769
vn -0.7818 0.1698 -0.5999
vn -0.9103 0.1709 -0.3771
vn -0.7817 0.1709 -0.5998
vn -0.7023 0.7059 -0.0925
vn -0.9727 0.1936 -0.1281
vn -0.6799 0.7278 0.0895
vn -0.9724 0.1949 0.1280
vn -0.9771 0.1698 0.1286
vn -0.9771 0.1696 -0.1286
vn -0.9771 0.1698 -0.1286
vn -0.9769 0.1709 0.1286
vn -0.9769 0.1709 -0.1286
vn -0.6544 0.7059 0.2711
vn -0.9064 0.1936 0.3755
vn -0.5440 0.7278 0.4175
vn -0.7781 0.1949 0.5971
vn -0.7818 0.1698 0.6000
vn -0.9105 0.1696 0.3771
vn -0.9105 0.1698 0.3771
vn -0.9103 0.1709 0.3771
vn -0.7818 0.1698 0.5999
vn -0.7817 0.1709 0.5998
vn -0.4312 0.7059 0.5620
vn -0.5973 0.1936 0.7783
vn -0.2624 0.7278 0.6336
vn -0.3754 0.1949 0.9062
vn -0.3771 0.1698 0.9105
vn -0.6000 0.1696 0.7818
vn -0.5999 0.1698 0.7818
vn -0.5998 0.1709 0.7817
vn -0.3771 0.1709 0.9103
vn -0.0925 0.7059 0.7023
vn -0.1281 0.1936 0.9727
vn 0.0895 0.7278 0.6799
vn 0.1280 0.1949 0.9724
vn 0.1286 0.1698 0.9771
vn -0.1286 0.1696 0.9771
vn -0.1286 0.1698 0.9771
vn 0.1286 0.1709 0.9769
vn -0.1286 0.1709 0.9769
vn 0.2711 0.7059 0.6544
vn 0.3755 0.1936 0.9064
vn 0.4175 0.7278 0.5440
vn 0.5971 0.1949 0.7781
vn 0.6000 0.1698 0.7818
vn 0.3771 0.1696 0.9105
vn 0.3771 0.1698 0.9105
vn 0.5999 0.1698 0.7818
vn 0.5998 0.1709 0.7817
vn 0.3771 0.1709 0.9103
vn 0.5620 0.7059 0.4312
vn 0.7783 0.1936 0.5973
vn 0.6336 0.7278 0.2624
vn 0.9062 0.1949 0.3754
vn 0.9105 0.1698 0.3771
vn 0.7818 0.1696 0.6000
vn 0.7818 0.1698 0.5999
vn 0.7817 0.1709 0.5998
vn 0.9103 0.1709 0.3771
vn 0.7023 0.7059 0.0925
vn 0.9727 0.1936 0.1281
vn 0.6799 0.7278 -0.0895
vn 0.9724 0.1949 -0.1280
vn 0.9771 0.1698 -0.1286
vn 0.9771 0.1696 0.1286
vn 0.9771 0.1698 0.1286
vn 0.9769 0.1709 -0.1286
vn 0.9769 0.1709 0.1286
vn 0.6544 0.7059 -0.2711
vn 0.9064 0.1936 -0.3755
vn 0.9105 0.1696 -0.3771
vn 0.9105 0.1698 -0.3771
vn 0.7818 0.1698 -0.5999
vn 0.7817 0.1709 -0.5998
vn 0.9103 0.1709 -0.3771
vn 0.5999 0.1698 -0.7818
vn 0.3770 0.1709 -0.9103
vn 0.5998 0.1709 -0.7817
vn 0.1286 0.1709 -0.9769
vn 0.1286 0.1698 -0.9771
vn 0.1286 0.1696 -0.9771
vn 0.1281 0.1936 -0.9727
vn 0.0925 0.7059 -0.7023
vn -0.0074 0.9986 -0.0531
vn -0.0146 0.9993 -0.0353
vn -0.0002 1.0000 -0.0004
vn 0.0029 1.0000 -0.0078
vn -0.0323 0.9986 -0.0428
vn -0.0076 1.0000 -0.0035
vn -0.0094 1.0000 -0.0026
vn -0.0000 1.0000 -0.0000
vn 0.0048 1.0000 -0.0085
vn -0.0068 1.0000 -0.0001
vn -0.0057 1.0000 0.0011
vn -0.0000 1.0000 0.0000
vn 0.0047 1.0000 -0.0032
vn 0.0047 1.0000 -0.0049
vn -0.0051 1.0000 0.0021
vn -0.0048 1.0000 0.0032
vn 0.0056 1.0000 -0.0011
vn 0.0050 1.0000 -0.0021
vn -0.0047 1.0000 0.0049
vn -0.0048 1.0000 0.0085
vn 0.0094 1.0000 0.0026
vn 0.0068 1.0000 0.0002
vn -0.0029 1.0000 0.0078
vn 0.0002 1.0000 0.0004
vn 0.0074 0.9986 0.0531
vn 0.0146 0.9993 0.0353
vn 0.0323 0.9986 0.0428
vn 0.0076 1.0000 0.0035
vn -0.3770 0.1717 -0.9102
vn -0.1287 0.1724 -0.9766
vn -0.5996 0.1724 -0.7815
vn -0.3989 0.7553 -0.5201
vn -0.2508 0.7553 -0.6055
vn -0.0857 0.7552 -0.6498
vn -0.7815 0.1717 -0.5998
vn -0.9100 0.1724 -0.3770
vn -0.6056 0.7552 -0.2508
vn -0.5198 0.7553 -0.3992
vn -0.9767 0.1717 -0.1285
vn -0.9766 0.1724 0.1286
vn -0.6498 0.7553 0.0857
vn -0.6498 0.7553 -0.0853
vn -0.9102 0.1717 0.3770
vn -0.7815 0.1724 0.5996
vn -0.5201 0.7552 0.3989
vn -0.6056 0.7553 0.2507
vn -0.5998 0.1717 0.7815
vn -0.3769 0.1724 0.9101
vn -0.2508 0.7552 0.6056
vn -0.3991 0.7552 0.5199
vn -0.1285 0.1717 0.9767
vn 0.1287 0.1724 0.9766
vn 0.0857 0.7552 0.6498
vn -0.0853 0.7553 0.6499
vn 0.3770 0.1717 0.9102
vn 0.5996 0.1724 0.7815
vn 0.3989 0.7552 0.5201
vn 0.2508 0.7553 0.6055
vn 0.7815 0.1717 0.5998
vn 0.9100 0.1724 0.3770
vn 0.6055 0.7552 0.2510
vn 0.5198 0.7553 0.3992
vn 0.9767 0.1717 0.1286
vn 0.9766 0.1724 -0.1286
vn 0.6501 0.7550 -0.0856
vn 0.6498 0.7552 0.0856
vn 0.9102 0.1717 -0.3770
vn 0.7815 0.1724 -0.5996
vn 0.5202 0.7550 -0.3992
vn 0.6056 0.7552 -0.2508
vn 0.5997 0.1717 -0.7816
vn 0.3769 0.1724 -0.9101
vn 0.2507 0.7552 -0.6057
vn 0.3990 0.7552 -0.5200
vn 0.1285 0.1717 -0.9767
vn 0.0853 0.7553 -0.6498
vn -0.1009 0.9646 -0.2436
vn -0.1501 0.9699 -0.1919
vn -0.0295 0.9699 -0.2418
vn -0.1340 0.9862 -0.0967
vn -0.0488 0.9987 -0.0151
vn 0.0263 0.9862 -0.1632
vn 0.0237 0.9987 -0.0453
vn -0.0394 0.9992 -0.0053
vn -0.0344 0.9994 0.0045
vn 0.0239 0.9992 -0.0316
vn 0.0272 0.9994 -0.0210
vn -0.0306 0.9995 0.0126
vn -0.0274 0.9994 0.0210
vn 0.0303 0.9995 -0.0126
vn 0.0341 0.9994 -0.0044
vn -0.0241 0.9992 0.0316
vn -0.0238 0.9987 0.0453
vn 0.0393 0.9992 0.0055
vn 0.0488 0.9987 0.0153
vn -0.0263 0.9862 0.1632
vn 0.0295 0.9699 0.2418
vn 0.1009 0.9646 0.2436
vn 0.1501 0.9699 0.1919
vn 0.1340 0.9862 0.0968
# 307 vertex normals

vt 0.4900 0.9189 0.0000
vt 0.4838 0.9357 0.0000
vt 0.4766 0.9232 0.0000
vt 0.4424 0.9658 0.0000
vt 0.4470 0.9526 0.0000
vt 0.4592 0.9599 0.0000
vt 0.0339 0.9174 0.0000
vt 0.0472 0.9219 0.0000
vt 0.0400 0.9343 0.0000
vt 0.0812 0.9647 0.0000
vt 0.0644 0.9587 0.0000
vt 0.0767 0.9514 0.0000
vt 0.4912 0.5568 0.0000
vt 0.4779 0.5523 0.0000
vt 0.4851 0.5399 0.0000
vt 0.4439 0.5094 0.0000
vt 0.4607 0.5155 0.0000
vt 0.4485 0.5227 0.0000
vt 0.0350 0.5554 0.0000
vt 0.0412 0.5386 0.0000
vt 0.0484 0.5511 0.0000
vt 0.0826 0.5085 0.0000
vt 0.0780 0.5217 0.0000
vt 0.0657 0.5144 0.0000
vt 0.0969 0.4860 0.0000
vt 0.0999 0.4947 0.0000
vt 0.0761 0.4901 0.0000
vt 0.4280 0.9883 0.0000
vt 0.4251 0.9796 0.0000
vt 0.4488 0.9842 0.0000
vt 0.5128 0.9048 0.0000
vt 0.5082 0.9257 0.0000
vt 0.5042 0.9017 0.0000
vt 0.0955 0.9872 0.0000
vt 0.0747 0.9830 0.0000
vt 0.0984 0.9786 0.0000
vt 0.0112 0.9033 0.0000
vt 0.0198 0.9002 0.0000
vt 0.0156 0.9241 0.0000
vt 0.4295 0.4869 0.0000
vt 0.4504 0.4911 0.0000
vt 0.4266 0.4956 0.0000
vt 0.5138 0.5710 0.0000
vt 0.5052 0.5740 0.0000
vt 0.5095 0.5501 0.0000
vt 0.0123 0.5695 0.0000
vt 0.0168 0.5486 0.0000
vt 0.0209 0.5726 0.0000
vt 0.1025 0.5383 0.0000
vt 0.0670 0.5402 0.0000
vt 0.0813 0.5324 0.0000
vt 0.1023 0.5299 0.0000
vt 0.4451 0.5333 0.0000
vt 0.4240 0.5307 0.0000
vt 0.4246 0.5186 0.0000
vt 0.4943 0.5750 0.0000
vt 0.4932 0.9006 0.0000
vt 0.0564 0.4987 0.0000
vt 0.1008 0.5056 0.0000
vt 0.4993 0.9454 0.0000
vt 0.4659 0.9197 0.0000
vt 0.4690 0.8989 0.0000
vt 0.4811 0.8996 0.0000
vt 0.1017 0.5177 0.0000
vt 0.4256 0.5066 0.0000
vt 0.4822 0.5760 0.0000
vt 0.4701 0.5766 0.0000
vt 0.4671 0.5558 0.0000
vt 0.4242 0.9686 0.0000
vt 0.0308 0.8992 0.0000
vt 0.0591 0.5546 0.0000
vt 0.0561 0.5754 0.0000
vt 0.0439 0.5747 0.0000
vt 0.4686 0.9756 0.0000
vt 0.5007 0.5303 0.0000
vt 0.4702 0.4998 0.0000
vt 0.0800 0.9407 0.0000
vt 0.1011 0.9434 0.0000
vt 0.1005 0.9555 0.0000
vt 0.7801 0.5189 0.0000
vt 0.7801 0.4322 0.0000
vt 0.8676 0.4322 0.0000
vt 0.8676 0.5189 0.0000
vt 0.0994 0.9676 0.0000
vt 0.0257 0.5289 0.0000
vt 0.0244 0.9439 0.0000
vt 0.4232 0.9566 0.0000
vt 0.4227 0.9444 0.0000
vt 0.4438 0.9419 0.0000
vt 0.0549 0.9743 0.0000
vt 0.0319 0.5737 0.0000
vt 0.0429 0.8982 0.0000
vt 0.0550 0.8976 0.0000
vt 0.0580 0.9184 0.0000
vt 0.5322 0.1866 0.0000
vt 0.5322 0.1615 0.0000
vt 0.7584 0.1615 0.0000
vt 0.7584 0.1866 0.0000
vt 0.6454 0.0483 0.0000
vt 0.5322 0.3254 0.0000
vt 0.5322 0.3003 0.0000
vt 0.7584 0.3003 0.0000
vt 0.7584 0.3254 0.0000
vt 0.6454 0.1871 0.0000
vt 0.9104 0.2079 0.0000
vt 0.9104 0.5351 0.0000
vt 0.8976 0.5351 0.0000
vt 0.8976 0.2079 0.0000
vt 0.9104 0.5865 0.0000
vt 0.8976 0.5865 0.0000
vt 0.9760 0.2079 0.0000
vt 0.9760 0.5351 0.0000
vt 0.9632 0.5351 0.0000
vt 0.9632 0.2079 0.0000
vt 0.9760 0.5865 0.0000
vt 0.9632 0.5865 0.0000
vt 0.9892 0.2079 0.0000
vt 0.9892 0.5351 0.0000
vt 0.9763 0.5351 0.0000
vt 0.9763 0.2079 0.0000
vt 0.9892 0.5865 0.0000
vt 0.9763 0.5865 0.0000
vt 0.8973 0.2079 0.0000
vt 0.8973 0.5351 0.0000
vt 0.8844 0.5351 0.0000
vt 0.8844 0.2079 0.0000
vt 0.8973 0.5865 0.0000
vt 0.8844 0.5865 0.0000
vt 0.5322 0.4642 0.0000
vt 0.5322 0.4391 0.0000
vt 0.7584 0.4391 0.0000
vt 0.7584 0.4642 0.0000
vt 0.6454 0.3259 0.0000
vt 0.7592 0.1866 0.0000
vt 0.7592 0.1615 0.0000
vt 0.9855 0.1615 0.0000
vt 0.9855 0.1866 0.0000
vt 0.8724 0.0483 0.0000
vt 0.9235 0.2584 0.0000
vt 0.9107 0.2584 0.0000
vt 0.9107 0.2068 0.0000
vt 0.9235 0.2068 0.0000
vt 0.9235 0.5865 0.0000
vt 0.9107 0.5865 0.0000
vt 0.9370 0.2584 0.0000
vt 0.9498 0.2584 0.0000
vt 0.9498 0.5865 0.0000
vt 0.9370 0.5865 0.0000
vt 0.9370 0.2068 0.0000
vt 0.9498 0.2068 0.0000
vt 0.9238 0.2584 0.0000
vt 0.9367 0.2584 0.0000
vt 0.9367 0.5865 0.0000
vt 0.9238 0.5865 0.0000
vt 0.9238 0.2068 0.0000
vt 0.9367 0.2068 0.0000
vt 0.9501 0.2584 0.0000
vt 0.9629 0.2584 0.0000
vt 0.9629 0.5865 0.0000
vt 0.9501 0.5865 0.0000
vt 0.9501 0.2068 0.0000
vt 0.9629 0.2068 0.0000
vt 0.4730 0.9494 0.0000
vt 0.4866 0.9633 0.0000
vt 0.4656 0.9418 0.0000
vt 0.4592 0.5413 0.0000
vt 0.4669 0.5336 0.0000
vt 0.0594 0.5325 0.0000
vt 0.4744 0.5261 0.0000
vt 0.4580 0.9341 0.0000
vt 0.0582 0.9405 0.0000
vt 0.0658 0.9329 0.0000
vt 0.0520 0.5249 0.0000
vt 0.4881 0.5124 0.0000
vt 0.0507 0.9480 0.0000
vt 0.0384 0.5111 0.0000
vt 0.0370 0.9618 0.0000
vt 0.5885 0.6054 0.0000
vt 0.5885 0.5569 0.0000
vt 0.8798 0.5569 0.0000
vt 0.8798 0.6054 0.0000
vt 0.5273 0.6031 0.0000
vt 0.5561 0.6378 0.0000
vt 0.5397 0.6216 0.0000
vt 0.5885 0.7192 0.0000
vt 0.5885 0.6708 0.0000
vt 0.8798 0.6708 0.0000
vt 0.8798 0.7192 0.0000
vt 0.5273 0.7169 0.0000
vt 0.5561 0.7516 0.0000
vt 0.5397 0.7354 0.0000
vt 0.5885 0.8331 0.0000
vt 0.5885 0.7846 0.0000
vt 0.8798 0.7846 0.0000
vt 0.8798 0.8331 0.0000
vt 0.5561 0.7521 0.0000
vt 0.5273 0.7869 0.0000
vt 0.5397 0.7684 0.0000
vt 0.5885 0.9469 0.0000
vt 0.5885 0.8984 0.0000
vt 0.8798 0.8984 0.0000
vt 0.8798 0.9469 0.0000
vt 0.5561 0.8659 0.0000
vt 0.5273 0.9007 0.0000
vt 0.5397 0.8822 0.0000
vt 0.5273 0.6731 0.0000
vt 0.5397 0.6545 0.0000
vt 0.5561 0.6383 0.0000
vt 0.5230 0.6950 0.0000
vt 0.5230 0.9226 0.0000
vt 0.5561 0.9792 0.0000
vt 0.5397 0.9630 0.0000
vt 0.5273 0.9445 0.0000
vt 0.5230 0.8088 0.0000
vt 0.5561 0.8654 0.0000
vt 0.5397 0.8492 0.0000
vt 0.5273 0.8307 0.0000
vt 0.5273 0.5593 0.0000
vt 0.5397 0.5407 0.0000
vt 0.5561 0.5245 0.0000
vt 0.5230 0.5812 0.0000
vt 0.1018 0.8968 0.0000
vt 0.1017 0.9193 0.0000
vt 0.1014 0.9350 0.0000
vt 0.1026 0.5765 0.0000
vt 0.1027 0.5540 0.0000
vt 0.4237 0.5392 0.0000
vt 0.4234 0.5548 0.0000
vt 0.4234 0.5774 0.0000
vt 0.4224 0.8978 0.0000
vt 0.4223 0.9203 0.0000
vt 0.4225 0.9360 0.0000
vt 0.5065 0.4240 0.0000
vt 0.5065 0.4432 0.0000
vt 0.4932 0.4432 0.0000
vt 0.4932 0.4240 0.0000
vt 0.5065 0.4754 0.0000
vt 0.4932 0.4754 0.0000
vt 0.4528 0.4754 0.0000
vt 0.4528 0.4432 0.0000
vt 0.4528 0.4240 0.0000
vt 0.5065 0.0834 0.0000
vt 0.5065 0.1024 0.0000
vt 0.4932 0.1024 0.0000
vt 0.4932 0.0834 0.0000
vt 0.5065 0.1213 0.0000
vt 0.4932 0.1213 0.0000
vt 0.4528 0.1213 0.0000
vt 0.4528 0.1024 0.0000
vt 0.4528 0.0834 0.0000
vt 0.5065 0.0454 0.0000
vt 0.5065 0.0645 0.0000
vt 0.4932 0.0645 0.0000
vt 0.4932 0.0454 0.0000
vt 0.4528 0.0645 0.0000
vt 0.4528 0.0454 0.0000
vt 0.3226 0.0834 0.0000
vt 0.3226 0.0645 0.0000
vt 0.1296 0.0834 0.0000
vt 0.1296 0.0645 0.0000
vt 0.1296 0.0454 0.0000
vt 0.3226 0.0454 0.0000
vt 0.3226 0.1024 0.0000
vt 0.3226 0.1213 0.0000
vt 0.1296 0.1213 0.0000
vt 0.1296 0.1024 0.0000
vt 0.5065 0.1402 0.0000
vt 0.4932 0.1402 0.0000
vt 0.5065 0.1590 0.0000
vt 0.4932 0.1590 0.0000
vt 0.4528 0.1590 0.0000
vt 0.4528 0.1402 0.0000
vt 0.3226 0.1402 0.0000
vt 0.3226 0.1590 0.0000
vt 0.1296 0.1590 0.0000
vt 0.1296 0.1402 0.0000
vt 0.5065 0.1779 0.0000
vt 0.4932 0.1779 0.0000
vt 0.5065 0.1968 0.0000
vt 0.4932 0.1968 0.0000
vt 0.4528 0.1968 0.0000
vt 0.4528 0.1779 0.0000
vt 0.3226 0.1779 0.0000
vt 0.1296 0.1779 0.0000
vt 0.3226 0.1968 0.0000
vt 0.1296 0.1968 0.0000
vt 0.5065 0.2157 0.0000
vt 0.4932 0.2157 0.0000
vt 0.5065 0.2345 0.0000
vt 0.4932 0.2345 0.0000
vt 0.4528 0.2345 0.0000
vt 0.4528 0.2157 0.0000
vt 0.3226 0.2157 0.0000
vt 0.1296 0.2157 0.0000
vt 0.3226 0.2345 0.0000
vt 0.1296 0.2345 0.0000
vt 0.5065 0.2534 0.0000
vt 0.4932 0.2534 0.0000
vt 0.5065 0.2722 0.0000
vt 0.4932 0.2722 0.0000
vt 0.4528 0.2722 0.0000
vt 0.4528 0.2534 0.0000
vt 0.3226 0.2534 0.0000
vt 0.3226 0.2722 0.0000
vt 0.1296 0.2722 0.0000
vt 0.1296 0.2534 0.0000
vt 0.5065 0.2911 0.0000
vt 0.4932 0.2911 0.0000
vt 0.5065 0.3100 0.0000
vt 0.4932 0.3100 0.0000
vt 0.4528 0.3100 0.0000
vt 0.4528 0.2911 0.0000
vt 0.3226 0.2911 0.0000
vt 0.3226 0.3100 0.0000
vt 0.1296 0.3100 0.0000
vt 0.1296 0.2911 0.0000
vt 0.5065 0.3289 0.0000
vt 0.4932 0.3289 0.0000
vt 0.5065 0.3478 0.0000
vt 0.4932 0.3478 0.0000
vt 0.4528 0.3478 0.0000
vt 0.4528 0.3289 0.0000
vt 0.3226 0.3289 0.0000
vt 0.1296 0.3289 0.0000
vt 0.3226 0.3478 0.0000
vt 0.1296 0.3478 0.0000
vt 0.5065 0.3668 0.0000
vt 0.4932 0.3668 0.0000
vt 0.5065 0.3857 0.0000
vt 0.4932 0.3857 0.0000
vt 0.4528 0.3857 0.0000
vt 0.4528 0.3668 0.0000
vt 0.3226 0.3668 0.0000
vt 0.3226 0.3857 0.0000
vt 0.1296 0.3857 0.0000
vt 0.1296 0.3668 0.0000
vt 0.5065 0.4048 0.0000
vt 0.4932 0.4048 0.0000
vt 0.4528 0.4048 0.0000
vt 0.3226 0.4048 0.0000
vt 0.3226 0.4240 0.0000
vt 0.1296 0.4240 0.0000
vt 0.1296 0.4048 0.0000
vt 0.3226 0.4432 0.0000
vt 0.3226 0.4754 0.0000
vt 0.1296 0.4754 0.0000
vt 0.1296 0.4432 0.0000
vt 0.1296 0.0264 0.0000
vt 0.3226 0.0264 0.0000
vt 0.1296 0.0113 0.0000
vt 0.3226 0.0113 0.0000
vt 0.4528 0.0113 0.0000
vt 0.4528 0.0264 0.0000
vt 0.4932 0.0264 0.0000
vt 0.4932 0.0113 0.0000
vt 0.5065 0.0113 0.0000
vt 0.5065 0.0264 0.0000
vt 0.8083 0.3233 0.0000
vt 0.7954 0.3194 0.0000
vt 0.7978 0.3136 0.0000
vt 0.8181 0.3222 0.0000
vt 0.7835 0.3132 0.0000
vt 0.7772 0.3056 0.0000
vt 0.7722 0.2936 0.0000
vt 0.8013 0.3050 0.0000
vt 0.8301 0.3170 0.0000
vt 0.7703 0.2796 0.0000
vt 0.8058 0.2938 0.0000
vt 0.7715 0.2648 0.0000
vt 0.8111 0.2808 0.0000
vt 0.8506 0.2969 0.0000
vt 0.8412 0.3083 0.0000
vt 0.7758 0.2502 0.0000
vt 0.8168 0.2667 0.0000
vt 0.7829 0.2366 0.0000
vt 0.8224 0.2527 0.0000
vt 0.8621 0.2687 0.0000
vt 0.8577 0.2833 0.0000
vt 0.7923 0.2251 0.0000
vt 0.8277 0.2397 0.0000
vt 0.8034 0.2165 0.0000
vt 0.8323 0.2284 0.0000
vt 0.8613 0.2399 0.0000
vt 0.8633 0.2539 0.0000
vt 0.8154 0.2113 0.0000
vt 0.8357 0.2199 0.0000
vt 0.8252 0.2102 0.0000
vt 0.8381 0.2141 0.0000
vt 0.8500 0.2202 0.0000
vt 0.8563 0.2278 0.0000
vt 0.0219 0.0645 0.0000
vt 0.0219 0.0454 0.0000
vt 0.0219 0.0834 0.0000
vt 0.7797 0.3159 0.0000
vt 0.7937 0.3237 0.0000
vt 0.7931 0.3252 0.0000
vt 0.7788 0.3171 0.0000
vt 0.8092 0.3278 0.0000
vt 0.8090 0.3293 0.0000
vt 0.0219 0.1024 0.0000
vt 0.0219 0.1213 0.0000
vt 0.7601 0.2907 0.0000
vt 0.7683 0.3046 0.0000
vt 0.7671 0.3055 0.0000
vt 0.7587 0.2913 0.0000
vt 0.0219 0.1402 0.0000
vt 0.0219 0.1590 0.0000
vt 0.7557 0.2592 0.0000
vt 0.7559 0.2753 0.0000
vt 0.7543 0.2755 0.0000
vt 0.7542 0.2590 0.0000
vt 0.0219 0.1779 0.0000
vt 0.0219 0.1968 0.0000
vt 0.7677 0.2297 0.0000
vt 0.7598 0.2437 0.0000
vt 0.7583 0.2431 0.0000
vt 0.7664 0.2288 0.0000
vt 0.0219 0.2157 0.0000
vt 0.0219 0.2345 0.0000
vt 0.7928 0.2101 0.0000
vt 0.7789 0.2183 0.0000
vt 0.7780 0.2170 0.0000
vt 0.7922 0.2087 0.0000
vt 0.0219 0.2534 0.0000
vt 0.0219 0.2722 0.0000
vt 0.8243 0.2057 0.0000
vt 0.8082 0.2058 0.0000
vt 0.8080 0.2043 0.0000
vt 0.8245 0.2042 0.0000
vt 0.0219 0.2911 0.0000
vt 0.0219 0.3100 0.0000
vt 0.8538 0.2176 0.0000
vt 0.8398 0.2097 0.0000
vt 0.8404 0.2083 0.0000
vt 0.8547 0.2164 0.0000
vt 0.0219 0.3289 0.0000
vt 0.0219 0.3478 0.0000
vt 0.8734 0.2427 0.0000
vt 0.8652 0.2289 0.0000
vt 0.8665 0.2280 0.0000
vt 0.8748 0.2421 0.0000
vt 0.0219 0.3668 0.0000
vt 0.0219 0.3857 0.0000
vt 0.8778 0.2743 0.0000
vt 0.8777 0.2582 0.0000
vt 0.8792 0.2580 0.0000
vt 0.8793 0.2745 0.0000
vt 0.0219 0.4048 0.0000
vt 0.0219 0.4240 0.0000
vt 0.8659 0.3038 0.0000
vt 0.8738 0.2898 0.0000
vt 0.8752 0.2904 0.0000
vt 0.8671 0.3047 0.0000
vt 0.0219 0.4432 0.0000
vt 0.0219 0.4754 0.0000
vt 0.8408 0.3234 0.0000
vt 0.8546 0.3152 0.0000
vt 0.8555 0.3164 0.0000
vt 0.8414 0.3248 0.0000
vt 0.0219 0.0264 0.0000
vt 0.0219 0.0113 0.0000
vt 0.8253 0.3276 0.0000
vt 0.8255 0.3292 0.0000
vt 0.7943 0.3223 0.0000
vt 0.7806 0.3146 0.0000
vt 0.8094 0.3263 0.0000
vt 0.7695 0.3036 0.0000
vt 0.7615 0.2901 0.0000
vt 0.8251 0.3261 0.0000
vt 0.8402 0.3220 0.0000
vt 0.7574 0.2750 0.0000
vt 0.7572 0.2594 0.0000
vt 0.8536 0.3140 0.0000
vt 0.8647 0.3029 0.0000
vt 0.7612 0.2442 0.0000
vt 0.7689 0.2306 0.0000
vt 0.8723 0.2892 0.0000
vt 0.8763 0.2741 0.0000
vt 0.7799 0.2195 0.0000
vt 0.7934 0.2115 0.0000
vt 0.8761 0.2584 0.0000
vt 0.8720 0.2433 0.0000
vt 0.8085 0.2074 0.0000
vt 0.8241 0.2072 0.0000
vt 0.8393 0.2112 0.0000
vt 0.8529 0.2188 0.0000
vt 0.8640 0.2299 0.0000
# 487 texture coords

o traffic_cone
g traffic_cone
usemtl traffic_cone
s off
f 1/1/1 2/2/2 3/3/3 
f 4/4/4 5/5/5 6/6/6 
f 7/7/7 8/8/8 9/9/9 
f 10/10/10 11/11/11 12/12/12 
f 13/13/13 14/14/14 15/15/15 
f 16/16/16 17/17/17 18/18/18 
f 19/19/19 20/20/20 21/21/21 
f 22/22/22 23/23/23 24/24/24 
f 25/25/25 26/26/25 27/27/26 
f 28/28/27 29/29/27 30/30/28 
f 31/31/29 32/32/30 33/33/29 
f 34/34/27 35/35/31 36/36/27 
f 37/37/32 38/38/32 39/39/33 
f 40/40/25 41/41/34 42/42/25 
f 43/43/29 44/44/29 45/45/35 
f 46/46/32 47/47/36 48/48/32 
f 49/49/37 50/50/38 51/51/39 52/52/40 
f 53/53/41 54/54/40 55/55/42 18/18/18 
f 56/56/43 44/44/29 33/33/29 57/57/43 
f 27/27/26 22/22/22 24/24/24 58/58/44 
f 26/26/25 59/59/45 22/22/22 27/27/26 
f 32/32/30 60/60/46 2/2/2 1/1/1 
f 44/44/29 56/56/43 13/13/13 45/45/35 
f 61/61/47 62/62/48 63/63/49 3/3/3 
f 64/64/50 52/52/40 51/51/39 23/23/23 
f 1/1/1 57/57/43 33/33/29 32/32/30 
f 16/16/16 65/65/45 42/42/25 41/41/34 
f 66/66/51 67/67/48 68/68/52 14/14/14 
f 29/29/27 69/69/53 4/4/4 30/30/28 
f 38/38/32 70/70/54 7/7/7 39/39/33 
f 71/71/55 72/72/56 73/73/57 21/21/21 
f 30/30/28 4/4/4 6/6/6 74/74/58 
f 15/15/15 75/75/59 45/45/35 13/13/13 
f 59/59/45 26/26/25 42/42/25 65/65/45 
f 17/17/17 16/16/16 41/41/34 76/76/60 
f 77/77/61 78/78/62 79/79/63 12/12/12 
f 80/80/64 81/81/65 82/82/64 83/83/65 
f 10/10/10 84/84/53 36/36/27 35/35/31 
f 47/47/36 85/85/66 20/20/20 19/19/19 
f 9/9/9 86/86/67 39/39/33 7/7/7 
f 87/87/68 88/88/62 89/89/69 5/5/5 
f 11/11/11 10/10/10 35/35/31 90/90/70 
f 38/38/32 48/48/32 91/91/54 70/70/54 
f 92/92/71 93/93/56 94/94/72 8/8/8 
f 29/29/27 36/36/27 84/84/53 69/69/53 
f 19/19/19 91/91/54 48/48/32 47/47/36 
f 29/95/64 95/96/64 96/97/64 36/98/64 
f 97/99/64 96/97/64 95/96/64 
f 44/100/64 98/101/64 99/102/64 33/103/64 
f 100/104/64 99/102/64 98/101/64 
f 101/105/73 102/106/73 103/107/73 81/108/73 
f 102/106/25 38/109/25 37/110/25 103/107/25 
f 100/111/74 98/112/74 104/113/74 83/114/74 
f 98/112/27 44/115/27 43/116/27 104/113/27 
f 105/117/75 106/118/75 107/119/75 80/120/75 
f 106/118/29 26/121/29 25/122/29 107/119/29 
f 97/123/76 95/124/76 108/125/76 82/126/76 
f 95/124/32 29/127/32 28/128/32 108/125/32 
f 26/129/64 106/130/64 109/131/64 42/132/64 
f 105/133/64 109/131/64 106/130/64 
f 38/134/64 102/135/64 110/136/64 48/137/64 
f 101/138/64 110/136/64 102/135/64 
f 99/139/25 111/140/25 31/141/25 33/142/25 
f 100/143/75 83/144/75 111/140/75 99/139/75 
f 112/145/73 109/146/73 105/147/73 80/148/73 
f 40/149/32 42/150/32 109/146/32 112/145/32 
f 113/151/74 96/152/74 97/153/74 82/154/74 
f 34/155/29 36/156/29 96/152/29 113/151/29 
f 114/157/76 110/158/76 101/159/76 81/160/76 
f 46/161/27 48/162/27 110/158/27 114/157/27 
f 6/6/6 115/163/77 116/164/74 74/74/58 
f 2/2/2 60/60/46 116/164/74 115/163/77 
f 117/165/78 115/163/77 6/6/6 5/5/5 
f 115/163/77 117/165/78 2/2/2 
f 3/3/3 2/2/2 117/165/78 
f 118/166/79 119/167/80 14/14/14 68/68/52 
f 118/166/79 53/53/41 18/18/18 119/167/80 
f 50/50/38 120/168/81 23/23/23 51/51/39 
f 50/50/38 71/71/55 21/21/21 120/168/81 
f 119/167/80 121/169/82 15/15/15 14/14/14 
f 119/167/80 18/18/18 17/17/17 121/169/82 
f 3/3/3 117/165/78 122/170/83 61/61/47 
f 5/5/5 89/89/69 122/170/83 117/165/78 
f 12/12/12 123/171/84 124/172/85 77/77/61 
f 8/8/8 94/94/72 124/172/85 123/171/84 
f 120/168/81 125/173/86 24/24/24 23/23/23 
f 120/168/81 21/21/21 20/20/20 125/173/86 
f 126/174/75 121/169/82 17/17/17 76/76/60 
f 126/174/75 75/75/59 15/15/15 121/169/82 
f 11/11/11 127/175/87 123/171/84 12/12/12 
f 127/175/87 9/9/9 123/171/84 
f 8/8/8 123/171/84 9/9/9 
f 24/24/24 125/173/86 128/176/73 58/58/44 
f 20/20/20 85/85/66 128/176/73 125/173/86 
f 129/177/76 127/175/87 11/11/11 90/90/70 
f 129/177/76 86/86/67 9/9/9 127/175/87 
f 79/79/88 84/84/53 10/10/10 12/12/12 
f 87/87/89 69/69/53 84/84/53 79/79/88 
f 87/87/89 5/5/5 4/4/4 69/69/53 
f 78/78/62 88/88/62 87/87/68 79/79/63 
f 67/67/48 66/66/51 63/63/49 62/62/48 
f 92/92/71 73/73/57 72/72/56 93/93/56 
f 64/64/50 55/55/42 54/54/40 52/52/40 
f 7/7/7 70/70/54 92/92/90 8/8/8 
f 70/70/54 91/91/54 73/73/91 92/92/90 
f 19/19/19 21/21/21 73/73/91 91/91/54 
f 22/22/22 59/59/45 64/64/92 23/23/23 
f 59/59/45 65/65/45 55/55/93 64/64/92 
f 16/16/16 18/18/18 55/55/93 65/65/45 
f 63/63/94 57/57/43 1/1/1 3/3/3 
f 66/66/95 56/56/43 57/57/43 63/63/94 
f 66/66/95 14/14/14 13/13/13 56/56/43 
f 103/178/64 113/179/64 82/180/64 81/181/65 
f 86/182/64 103/178/64 37/183/64 39/184/64 
f 107/185/64 114/186/64 81/187/65 80/188/64 
f 58/189/64 107/185/64 25/190/64 27/191/64 
f 108/192/64 111/193/64 83/194/65 82/195/64 
f 31/196/64 111/193/64 60/197/64 32/198/64 
f 104/199/64 112/200/64 80/201/64 83/202/65 
f 40/203/64 112/200/64 76/204/64 41/205/64 
f 85/206/64 47/207/64 46/208/64 114/186/64 
f 128/209/64 114/186/64 107/185/64 58/189/64 
f 128/209/64 85/206/64 114/186/64 
f 112/200/64 126/210/64 76/204/64 
f 43/211/64 45/212/64 75/213/64 104/199/64 
f 104/199/64 75/213/64 126/210/64 112/200/64 
f 111/193/64 108/192/64 116/214/64 60/197/64 
f 28/215/64 30/216/64 74/217/64 108/192/64 
f 108/192/64 74/217/64 116/214/64 
f 90/218/64 35/219/64 34/220/64 113/179/64 
f 129/221/64 90/218/64 113/179/64 103/178/64 
f 86/182/64 129/221/64 103/178/64 
f 94/94/72 93/93/56 130/222/37 131/223/37 
f 124/172/85 94/94/72 131/223/37 132/224/37 
f 77/77/61 124/172/85 132/224/37 78/78/62 
f 93/93/56 72/72/56 133/225/37 130/222/37 
f 133/225/37 72/72/56 71/71/55 134/226/37 
f 134/226/37 71/71/55 50/50/38 49/49/37 
f 54/54/40 53/53/41 118/166/79 135/227/37 
f 118/166/79 68/68/52 136/228/37 135/227/37 
f 68/68/52 67/67/48 137/229/37 136/228/37 
f 67/67/48 62/62/48 138/230/37 137/229/37 
f 138/230/37 62/62/48 61/61/47 139/231/37 
f 139/231/37 61/61/47 122/170/83 140/232/37 
f 140/232/37 122/170/83 89/89/69 88/88/62 
f 78/78/62 132/224/37 140/232/37 88/88/62 
f 132/224/37 131/223/37 139/231/37 140/232/37 
f 131/223/37 130/222/37 138/230/37 139/231/37 
f 130/222/37 133/225/37 137/229/37 138/230/37 
f 133/225/37 134/226/37 136/228/37 137/229/37 
f 134/226/37 49/49/37 135/227/37 136/228/37 
f 49/49/37 52/52/40 54/54/40 135/227/37 
f 141/233/96 142/234/97 143/235/98 144/236/99 
f 142/234/97 145/237/100 146/238/101 143/235/98 
f 147/239/102 148/240/103 143/235/98 146/238/101 
f 148/240/103 149/241/104 144/236/99 143/235/98 
f 150/242/105 151/243/106 152/244/107 153/245/108 
f 151/243/106 154/246/109 155/247/110 152/244/107 
f 156/248/111 157/249/112 152/244/107 155/247/110 
f 157/249/112 158/250/113 153/245/108 152/244/107 
f 159/251/114 160/252/115 161/253/116 162/254/117 
f 160/252/115 150/242/105 153/245/108 161/253/116 
f 158/250/113 163/255/118 161/253/116 153/245/108 
f 163/255/118 164/256/119 162/254/117 161/253/116 
f 158/250/113 165/257/120 166/258/121 163/255/118 
f 165/257/120 167/259/122 168/260/123 166/258/121 
f 169/261/124 170/262/119 166/258/121 168/260/123 
f 170/262/119 164/256/119 163/255/118 166/258/121 
f 158/250/113 157/249/112 171/263/125 165/257/120 
f 157/249/112 156/248/111 172/264/111 171/263/125 
f 173/265/126 174/266/127 171/263/125 172/264/111 
f 174/266/127 167/259/122 165/257/120 171/263/125 
f 154/246/109 175/267/128 176/268/129 155/247/110 
f 175/267/128 177/269/130 178/270/131 176/268/129 
f 179/271/132 180/272/133 176/268/129 178/270/131 
f 180/272/133 156/248/111 155/247/110 176/268/129 
f 156/248/111 180/272/133 181/273/134 172/264/111 
f 180/272/133 179/271/132 182/274/132 181/273/134 
f 183/275/135 184/276/136 181/273/134 182/274/132 
f 184/276/136 173/265/126 172/264/111 181/273/134 
f 177/269/130 185/277/137 186/278/138 178/270/131 
f 185/277/137 187/279/139 188/280/140 186/278/138 
f 189/281/141 190/282/142 186/278/138 188/280/140 
f 190/282/142 179/271/132 178/270/131 186/278/138 
f 183/275/135 182/274/132 191/283/143 192/284/144 
f 182/274/132 179/271/132 190/282/142 191/283/143 
f 189/281/141 193/285/145 191/283/143 190/282/142 
f 193/285/145 194/286/146 192/284/144 191/283/143 
f 187/279/139 195/287/147 196/288/148 188/280/140 
f 195/287/147 197/289/149 198/290/150 196/288/148 
f 199/291/151 200/292/152 196/288/148 198/290/150 
f 200/292/152 189/281/141 188/280/140 196/288/148 
f 194/286/146 193/285/145 201/293/153 202/294/154 
f 193/285/145 189/281/141 200/292/152 201/293/153 
f 199/291/151 203/295/151 201/293/153 200/292/152 
f 203/295/151 204/296/155 202/294/154 201/293/153 
f 197/289/149 205/297/156 206/298/157 198/290/150 
f 205/297/156 207/299/158 208/300/159 206/298/157 
f 209/301/160 210/302/161 206/298/157 208/300/159 
f 210/302/161 199/291/151 198/290/150 206/298/157 
f 199/291/151 210/302/161 211/303/162 203/295/151 
f 210/302/161 209/301/160 212/304/160 211/303/162 
f 213/305/163 214/306/164 211/303/162 212/304/160 
f 214/306/164 204/296/155 203/295/151 211/303/162 
f 207/299/158 215/307/165 216/308/166 208/300/159 
f 215/307/165 217/309/167 218/310/168 216/308/166 
f 219/311/169 220/312/170 216/308/166 218/310/168 
f 220/312/170 209/301/160 208/300/159 216/308/166 
f 209/301/160 220/312/170 221/313/171 212/304/160 
f 220/312/170 219/311/169 222/314/172 221/313/171 
f 223/315/173 224/316/174 221/313/171 222/314/172 
f 224/316/174 213/305/163 212/304/160 221/313/171 
f 217/309/167 225/317/175 226/318/176 218/310/168 
f 225/317/175 227/319/177 228/320/178 226/318/176 
f 229/321/179 230/322/180 226/318/176 228/320/178 
f 230/322/180 219/311/169 218/310/168 226/318/176 
f 223/315/173 222/314/172 231/323/181 232/324/182 
f 222/314/172 219/311/169 230/322/180 231/323/181 
f 229/321/179 233/325/179 231/323/181 230/322/180 
f 233/325/179 234/326/183 232/324/182 231/323/181 
f 227/319/177 235/327/184 236/328/185 228/320/178 
f 235/327/184 237/329/186 238/330/187 236/328/185 
f 239/331/188 240/332/189 236/328/185 238/330/187 
f 240/332/189 229/321/179 228/320/178 236/328/185 
f 229/321/179 240/332/189 241/333/190 233/325/179 
f 240/332/189 239/331/188 242/334/188 241/333/190 
f 243/335/191 244/336/192 241/333/190 242/334/188 
f 244/336/192 234/326/183 233/325/179 241/333/190 
f 237/329/186 245/337/193 246/338/194 238/330/187 
f 245/337/193 141/233/96 144/236/99 246/338/194 
f 149/241/104 247/339/195 246/338/194 144/236/99 
f 247/339/195 239/331/188 238/330/187 246/338/194 
f 239/331/188 247/339/195 248/340/196 242/334/188 
f 247/339/195 149/241/104 249/341/197 248/340/196 
f 250/342/198 251/343/199 248/340/196 249/341/197 
f 251/343/199 243/335/191 242/334/188 248/340/196 
f 149/241/104 148/240/103 252/344/200 249/341/197 
f 148/240/103 147/239/102 253/345/102 252/344/200 
f 254/346/201 255/347/202 252/344/200 253/345/102 
f 255/347/202 250/342/198 249/341/197 252/344/200 
f 169/261/124 256/348/203 257/349/204 170/262/119 
f 256/348/203 254/350/201 253/351/102 257/349/204 
f 147/352/102 258/353/205 257/349/204 253/351/102 
f 258/353/205 164/256/119 170/262/119 257/349/204 
f 164/256/119 258/353/205 259/354/206 162/254/117 
f 258/353/205 147/352/102 146/355/101 259/354/206 
f 145/356/100 260/357/207 259/354/206 146/355/101 
f 260/357/207 159/251/114 162/254/117 259/354/206 
f 261/358/208 262/359/209 263/360/210 264/361/211 
f 262/359/209 265/362/212 266/363/213 263/360/210 
f 267/364/214 268/365/215 263/360/210 266/363/213 
f 268/365/215 269/366/216 264/361/211 263/360/210 
f 267/364/214 270/367/217 271/368/215 268/365/215 
f 270/367/217 272/369/218 273/370/219 271/368/215 
f 274/371/220 275/372/221 271/368/215 273/370/219 
f 275/372/221 269/366/216 268/365/215 271/368/215 
f 272/369/218 276/373/222 277/374/219 273/370/219 
f 276/373/222 278/375/223 279/376/219 277/374/219 
f 280/377/224 281/378/225 277/374/219 279/376/219 
f 281/378/225 274/371/220 273/370/219 277/374/219 
f 278/375/223 282/379/226 283/380/215 279/376/219 
f 282/379/226 284/381/227 285/382/37 283/380/215 
f 286/383/228 287/384/229 283/380/215 285/382/37 
f 287/384/229 280/377/224 279/376/219 283/380/215 
f 284/381/227 288/385/230 289/386/231 285/382/37 
f 288/385/230 290/387/232 291/388/233 289/386/231 
f 292/389/234 293/390/235 289/386/231 291/388/233 
f 293/390/235 286/383/228 285/382/37 289/386/231 
f 169/261/124 168/260/123 294/391/236 295/392/237 
f 168/260/123 167/259/122 296/393/238 294/391/236 
f 297/394/239 298/395/240 294/396/236 296/397/238 
f 298/395/240 299/398/241 295/399/237 294/396/236 
f 167/259/122 174/266/127 300/400/242 296/393/238 
f 174/266/127 173/265/126 301/401/243 300/400/242 
f 302/402/244 303/403/245 300/404/242 301/405/243 
f 303/403/245 297/394/239 296/397/238 300/404/242 
f 173/265/126 184/276/136 304/406/246 301/401/243 
f 184/276/136 183/275/135 305/407/247 304/406/246 
f 306/408/248 307/409/249 304/410/246 305/411/247 
f 307/409/249 302/402/244 301/405/243 304/410/246 
f 183/275/135 192/284/144 308/412/250 305/407/247 
f 192/284/144 194/286/146 309/413/251 308/412/250 
f 310/414/252 311/415/253 308/416/250 309/417/251 
f 311/415/253 306/408/248 305/411/247 308/416/250 
f 194/286/146 202/294/154 312/418/254 309/413/251 
f 202/294/154 204/296/155 313/419/255 312/418/254 
f 314/420/256 315/421/257 312/422/254 313/423/255 
f 315/421/257 310/414/252 309/417/251 312/422/254 
f 204/296/155 214/306/164 316/424/258 313/419/255 
f 214/306/164 213/305/163 317/425/259 316/424/258 
f 318/426/260 319/427/261 316/428/258 317/429/259 
f 319/427/261 314/420/256 313/423/255 316/428/258 
f 213/305/163 224/316/174 320/430/262 317/425/259 
f 224/316/174 223/315/173 321/431/263 320/430/262 
f 322/432/264 323/433/265 320/434/262 321/435/263 
f 323/433/265 318/426/260 317/429/259 320/434/262 
f 223/315/173 232/324/182 324/436/266 321/431/263 
f 232/324/182 234/326/183 325/437/267 324/436/266 
f 326/438/268 327/439/269 324/440/266 325/441/267 
f 327/439/269 322/432/264 321/435/263 324/440/266 
f 234/326/183 244/336/192 328/442/270 325/437/267 
f 244/336/192 243/335/191 329/443/271 328/442/270 
f 330/444/272 331/445/273 328/446/270 329/447/271 
f 331/445/273 326/438/268 325/441/267 328/446/270 
f 243/335/191 251/343/199 332/448/274 329/443/271 
f 251/343/199 250/342/198 333/449/275 332/448/274 
f 334/450/276 335/451/277 332/452/274 333/453/275 
f 335/451/277 330/444/272 329/447/271 332/452/274 
f 250/342/198 255/347/202 336/454/278 333/449/275 
f 255/347/202 254/346/201 337/455/279 336/454/278 
f 338/456/280 339/457/281 336/458/278 337/459/279 
f 339/457/281 334/450/276 333/453/275 336/458/278 
f 254/350/201 256/348/203 340/460/282 337/461/279 
f 256/348/203 169/261/124 295/392/237 340/460/282 
f 299/398/241 341/462/283 340/463/282 295/399/237 
f 341/462/283 338/456/280 337/459/279 340/463/282 
f 265/362/212 262/359/209 342/464/284 343/465/285 
f 262/359/209 261/358/208 344/466/286 342/464/284 
f 299/398/241 298/395/240 342/464/284 344/466/286 
f 298/395/240 297/394/239 343/465/285 342/464/284 
f 267/364/214 266/363/213 345/467/287 346/468/288 
f 266/363/213 265/362/212 343/465/285 345/467/287 
f 297/394/239 303/403/245 345/467/287 343/465/285 
f 303/403/245 302/402/244 346/468/288 345/467/287 
f 261/358/208 264/361/211 347/469/289 344/466/286 
f 264/361/211 269/366/216 348/470/290 347/469/289 
f 338/456/280 341/462/283 347/469/289 348/470/290 
f 341/462/283 299/398/241 344/466/286 347/469/289 
f 272/369/218 270/367/217 349/471/291 350/472/292 
f 270/367/217 267/364/214 346/468/288 349/471/291 
f 302/402/244 307/409/249 349/471/291 346/468/288 
f 307/409/249 306/408/248 350/472/292 349/471/291 
f 269/366/216 275/372/221 351/473/293 348/470/290 
f 275/372/221 274/371/220 352/474/294 351/473/293 
f 334/450/276 339/457/281 351/473/293 352/474/294 
f 339/457/281 338/456/280 348/470/290 351/473/293 
f 278/375/223 276/373/222 353/475/295 354/476/296 
f 276/373/222 272/369/218 350/472/292 353/475/295 
f 306/408/248 311/415/253 353/475/295 350/472/292 
f 311/415/253 310/414/252 354/476/296 353/475/295 
f 274/371/220 281/378/225 355/477/297 352/474/294 
f 281/378/225 280/377/224 356/478/298 355/477/297 
f 330/444/272 335/451/277 355/477/297 356/478/298 
f 335/451/277 334/450/276 352/474/294 355/477/297 
f 284/381/227 282/379/226 357/479/299 358/480/300 
f 282/379/226 278/375/223 354/476/296 357/479/299 
f 310/414/252 315/421/257 357/479/299 354/476/296 
f 315/421/257 314/420/256 358/480/300 357/479/299 
f 280/377/224 287/384/229 359/481/301 356/478/298 
f 287/384/229 286/383/228 360/482/302 359/481/301 
f 326/438/268 331/445/273 359/481/301 360/482/302 
f 331/445/273 330/444/272 356/478/298 359/481/301 
f 290/387/232 288/385/230 361/483/303 362/484/304 
f 288/385/230 284/381/227 358/480/300 361/483/303 
f 314/420/256 319/427/261 361/483/303 358/480/300 
f 319/427/261 318/426/260 362/484/304 361/483/303 
f 292/389/234 291/388/233 363/485/305 364/486/306 
f 291/388/233 290/387/232 362/484/304 363/485/305 
f 318/426/260 323/433/265 363/485/305 362/484/304 
f 323/433/265 322/432/264 364/486/306 363/485/305 
f 286/383/228 293/390/235 365/487/307 360/482/302 
f 293/390/235 292/389/234 364/486/306 365/487/307 
f 322/432/264 327/439/269 365/487/307 364/486/306 
f 327/439/269 326/438/268 360/482/302 365/487/307 
# 336 polygons - 28 triangles

